<?xml version="1.0" encoding="UTF-8"?>
<!DOCTYPE svg PUBLIC "-//W3C//DTD SVG 1.1//EN" "http://www.w3.org/Graphics/SVG/1.1/DTD/svg11.dtd">
<svg version="1.2" width="210mm" height="297mm" viewBox="0 0 21000 29700" preserveAspectRatio="xMidYMid" fill-rule="evenodd" stroke-width="28.222" stroke-linejoin="round" xmlns="http://www.w3.org/2000/svg" xmlns:ooo="http://xml.openoffice.org/svg/export" xmlns:xlink="http://www.w3.org/1999/xlink" xmlns:presentation="http://sun.com/xmlns/staroffice/presentation" xmlns:smil="http://www.w3.org/2001/SMIL20/" xmlns:anim="urn:oasis:names:tc:opendocument:xmlns:animation:1.0" xml:space="preserve">
 <defs class="ClipPathGroup">
  <clipPath id="presentation_clip_path" clipPathUnits="userSpaceOnUse">
   <rect x="0" y="0" width="21000" height="29700"/>
  </clipPath>
  <clipPath id="presentation_clip_path_shrink" clipPathUnits="userSpaceOnUse">
   <rect x="21" y="29" width="20958" height="29641"/>
  </clipPath>
 </defs>
 <defs class="TextShapeIndex">
  <g ooo:slide="id1" ooo:id-list="id3"/>
 </defs>
 <defs class="EmbeddedBulletChars">
  <g id="bullet-char-template-57356" transform="scale(0.00048828125,-0.00048828125)">
   <path d="M 580,1141 L 1163,571 580,0 -4,571 580,1141 Z"/>
  </g>
  <g id="bullet-char-template-57354" transform="scale(0.00048828125,-0.00048828125)">
   <path d="M 8,1128 L 1137,1128 1137,0 8,0 8,1128 Z"/>
  </g>
  <g id="bullet-char-template-10146" transform="scale(0.00048828125,-0.00048828125)">
   <path d="M 174,0 L 602,739 174,1481 1456,739 174,0 Z M 1358,739 L 309,1346 659,739 1358,739 Z"/>
  </g>
  <g id="bullet-char-template-10132" transform="scale(0.00048828125,-0.00048828125)">
   <path d="M 2015,739 L 1276,0 717,0 1260,543 174,543 174,936 1260,936 717,1481 1274,1481 2015,739 Z"/>
  </g>
  <g id="bullet-char-template-10007" transform="scale(0.00048828125,-0.00048828125)">
   <path d="M 0,-2 C -7,14 -16,27 -25,37 L 356,567 C 262,823 215,952 215,954 215,979 228,992 255,992 264,992 276,990 289,987 310,991 331,999 354,1012 L 381,999 492,748 772,1049 836,1024 860,1049 C 881,1039 901,1025 922,1006 886,937 835,863 770,784 769,783 710,716 594,584 L 774,223 C 774,196 753,168 711,139 L 727,119 C 717,90 699,76 672,76 641,76 570,178 457,381 L 164,-76 C 142,-110 111,-127 72,-127 30,-127 9,-110 8,-76 1,-67 -2,-52 -2,-32 -2,-23 -1,-13 0,-2 Z"/>
  </g>
  <g id="bullet-char-template-10004" transform="scale(0.00048828125,-0.00048828125)">
   <path d="M 285,-33 C 182,-33 111,30 74,156 52,228 41,333 41,471 41,549 55,616 82,672 116,743 169,778 240,778 293,778 328,747 346,684 L 369,508 C 377,444 397,411 428,410 L 1163,1116 C 1174,1127 1196,1133 1229,1133 1271,1133 1292,1118 1292,1087 L 1292,965 C 1292,929 1282,901 1262,881 L 442,47 C 390,-6 338,-33 285,-33 Z"/>
  </g>
  <g id="bullet-char-template-9679" transform="scale(0.00048828125,-0.00048828125)">
   <path d="M 813,0 C 632,0 489,54 383,161 276,268 223,411 223,592 223,773 276,916 383,1023 489,1130 632,1184 813,1184 992,1184 1136,1130 1245,1023 1353,916 1407,772 1407,592 1407,412 1353,268 1245,161 1136,54 992,0 813,0 Z"/>
  </g>
  <g id="bullet-char-template-8226" transform="scale(0.00048828125,-0.00048828125)">
   <path d="M 346,457 C 273,457 209,483 155,535 101,586 74,649 74,723 74,796 101,859 155,911 209,963 273,989 346,989 419,989 480,963 531,910 582,859 608,796 608,723 608,648 583,586 532,535 482,483 420,457 346,457 Z"/>
  </g>
  <g id="bullet-char-template-8211" transform="scale(0.00048828125,-0.00048828125)">
   <path d="M -4,459 L 1135,459 1135,606 -4,606 -4,459 Z"/>
  </g>
  <g id="bullet-char-template-61548" transform="scale(0.00048828125,-0.00048828125)">
   <path d="M 173,740 C 173,903 231,1043 346,1159 462,1274 601,1332 765,1332 928,1332 1067,1274 1183,1159 1299,1043 1357,903 1357,740 1357,577 1299,437 1183,322 1067,206 928,148 765,148 601,148 462,206 346,322 231,437 173,577 173,740 Z"/>
  </g>
 </defs>
 <g>
  <g id="id2" class="Master_Slide">
   <g id="bg-id2" class="Background"/>
   <g id="bo-id2" class="BackgroundObjects"/>
  </g>
 </g>
 <g class="SlideGroup">
  <g>
   <g id="container-id1">
    <g id="id1" class="Slide" clip-path="url(#presentation_clip_path)">
     <g class="Page">
      <g class="Graphic">
       <g id="id3">
        <rect class="BoundingBox" stroke="none" fill="none" x="3828" y="4328" width="13573" height="13573"/>
        <path fill="rgb(23,172,232)" stroke="none" d="M 7119,11804 L 7752,12899 C 7826,13028 7933,13135 8061,13209 8190,13283 8336,13322 8485,13322 8633,13322 8779,13283 8908,13209 L 14710,9859 C 14839,9785 14945,9678 15020,9549 15094,9421 15133,9275 15133,9126 15133,8978 15094,8832 15020,8703 L 14387,7607 7119,11804 Z"/>
        <path fill="rgb(13,112,178)" stroke="none" d="M 4027,10417 L 5400,12796 14387,7607 13437,5961 C 13362,5833 13256,5726 13127,5652 12998,5577 12852,5538 12704,5538 12555,5538 12409,5577 12280,5652 L 4027,10417 Z"/>
        <path fill="rgb(254,219,65)" stroke="none" d="M 7751,12899 C 7770,12931 7790,12960 7812,12989 7810,12990 7808,12992 7806,12993 7597,13114 7360,13177 7119,13177 6878,13177 6641,13114 6432,12993 6223,12873 6050,12699 5929,12491 L 7119,11804 7751,12899 Z"/>
        <path fill="rgb(0,221,193)" stroke="none" d="M 6359,10656 L 6359,10656 C 6359,10656 6359,10656 6359,10656 6405,10737 6430,10827 6430,10920 6430,11012 6405,11103 6359,11183 6313,11264 6246,11330 6166,11376 6086,11423 5995,11447 5903,11447 5810,11447 5719,11423 5639,11376 5559,11330 5493,11264 5446,11183 5400,11103 5376,11012 5376,10920 5376,10827 5400,10737 5446,10656 5493,10576 5559,10510 5639,10464 5639,10463 5639,10463 5640,10463 L 5640,10463 C 5720,10417 5810,10393 5903,10393 5995,10393 6086,10417 6166,10464 6246,10510 6313,10576 6359,10656 L 6359,10656 Z"/>
        <path fill="rgb(225,228,251)" stroke="none" d="M 12756,9982 C 12756,9982 12756,9982 12757,9982 L 14274,9105 C 14275,9105 14275,9105 14276,9105 14304,9089 14327,9065 14343,9037 14360,9009 14368,8977 14368,8944 14368,8912 14360,8880 14343,8852 14327,8824 14304,8800 14276,8784 14247,8768 14215,8759 14183,8759 14150,8759 14118,8768 14090,8784 14090,8784 14090,8784 14089,8785 L 12572,9661 C 12544,9677 12520,9701 12504,9729 12488,9757 12479,9789 12479,9821 12479,9854 12488,9886 12504,9914 12520,9942 12544,9966 12572,9982 12600,9998 12632,10007 12664,10007 12697,10007 12728,9998 12756,9982 Z"/>
        <path fill="rgb(13,112,178)" stroke="none" d="M 17202,10413 L 16646,10413 C 16535,10413 16425,10442 16329,10498 16232,10553 16152,10634 16096,10730 16040,10827 16011,10936 16011,11048 L 16011,16055 C 16011,16166 16040,16276 16096,16372 16152,16469 16232,16549 16329,16605 16425,16661 16535,16690 16646,16690 L 17202,16690 17202,10413 Z"/>
        <path fill="rgb(197,201,247)" stroke="none" d="M 16011,11472 L 14821,11472 14821,15281 16011,15281 16011,11472 Z"/>
        <path fill="rgb(225,228,251)" stroke="none" d="M 11718,11587 L 12253,12498 C 12327,12624 12433,12729 12560,12803 12688,12877 12834,12916 12983,12916 L 14821,12916 14821,14186 12983,14186 C 12612,14185 12247,14087 11925,13902 11608,13718 11343,13456 11157,13141 L 10618,12222 11718,11587 Z"/>
       </g>
      </g>
     </g>
    </g>
   </g>
  </g>
 </g>
</svg>