<svg id="Layer_1" data-name="Layer 1" xmlns="http://www.w3.org/2000/svg" xmlns:xlink="http://www.w3.org/1999/xlink" viewBox="0 0 1162.88 878.28"><defs><style>.cls-1,.cls-15,.cls-19{fill:none;}.cls-2{clip-path:url(#clip-path);}.cls-3,.cls-4{fill:#e6e6e6;}.cls-3{opacity:0.45;}.cls-5{fill:#f4a28c;}.cls-6{fill:#1da9f2;}.cls-7{fill:#fff;opacity:0.46;}.cls-8{fill:#24285b;}.cls-9{fill:#ce8172;opacity:0.31;}.cls-10{opacity:0.08;}.cls-11{fill:#ffd200;}.cls-12{fill:#c9c9c9;}.cls-13{fill:#50b34e;}.cls-14{fill:#026400;opacity:0.74;}.cls-15{stroke:#24285b;stroke-miterlimit:10;}.cls-15,.cls-19{stroke-width:3.07px;}.cls-16{fill:#028800;opacity:0.53;}.cls-17{fill:#f2d01d;}.cls-18{fill:#ace2ff;}.cls-19{stroke:#f2d01d;stroke-linecap:round;}</style><clipPath id="clip-path" transform="translate(-156.9 -260.65)"><rect class="cls-1" x="156.9" y="260.02" width="1162.88" height="880.6"/></clipPath></defs><g class="cls-2"><path class="cls-3" d="M454.85,1090.31q7.31,0,14.62,0t14.58.09q7.27.06,14.51.15t14.41.2q7.17.12,14.27.26t14.09.32q7,.17,13.89.37l13.64.43q6.76.22,13.37.49l13.07.53,12.72.59q6.27.32,12.35.64t12,.69q5.88.35,11.53.73t11.07.78q5.43.41,10.59.82t10.09.87c3.27.29,6.46.59,9.55.9s6.09.62,9,.94,5.71.65,8.42,1,5.31.66,7.82,1,4.91.68,7.21,1,4.49.71,6.57,1.07,4.06.72,5.93,1.09,3.62.74,5.26,1.11,3.17.76,4.59,1.14,2.72.76,3.9,1.15,2.25.77,3.2,1.16a22,22,0,0,1,2.5,1.18,11.1,11.1,0,0,1,1.79,1.18,4.85,4.85,0,0,1,1.08,1.19,2.16,2.16,0,0,1,0,2.39,5,5,0,0,1-1.08,1.19,11.1,11.1,0,0,1-1.79,1.18,22,22,0,0,1-2.5,1.18c-.95.39-2,.78-3.2,1.16s-2.48.77-3.9,1.15-2.94.76-4.59,1.14-3.39.74-5.26,1.11-3.84.73-5.93,1.09-4.27.71-6.57,1.07-4.7.69-7.21,1-5.11.68-7.82,1-5.52.66-8.42,1-5.91.63-9,.94-6.28.61-9.55.9-6.64.58-10.09.87-7,.55-10.59.82-7.3.53-11.07.78-7.61.5-11.53.73-7.9.47-12,.69-8.17.43-12.35.64l-12.72.59-13.07.53-13.37.49-13.64.43-13.89.37q-7,.18-14.09.32t-14.27.26q-7.17.12-14.41.2t-14.51.15q-7.28.06-14.58.09t-14.62,0q-7.32,0-14.62,0t-14.59-.09q-7.27-.06-14.51-.15t-14.41-.2q-7.17-.12-14.27-.26t-14.09-.32l-13.89-.37-13.64-.43-13.37-.49-13.06-.53-12.73-.59q-6.27-.32-12.35-.64t-12-.69q-5.87-.35-11.53-.73t-11.07-.78q-5.41-.41-10.59-.82c-3.45-.29-6.81-.57-10.08-.87s-6.46-.59-9.56-.9-6.09-.62-9-.94-5.71-.65-8.42-1-5.32-.67-7.83-1-4.91-.68-7.21-1-4.49-.71-6.57-1.07-4.06-.72-5.93-1.09-3.62-.74-5.26-1.11-3.17-.76-4.59-1.14-2.71-.76-3.9-1.15-2.25-.77-3.2-1.16a22.8,22.8,0,0,1-2.5-1.18,11.57,11.57,0,0,1-1.79-1.18,5,5,0,0,1-1.08-1.19,2.16,2.16,0,0,1,0-2.39,4.85,4.85,0,0,1,1.08-1.19,11.57,11.57,0,0,1,1.79-1.18,22.8,22.8,0,0,1,2.5-1.18c1-.39,2-.78,3.2-1.16s2.49-.77,3.9-1.15,3-.76,4.59-1.14,3.4-.74,5.26-1.11,3.84-.73,5.93-1.09,4.28-.72,6.57-1.07,4.71-.69,7.21-1,5.12-.68,7.83-1,5.51-.66,8.42-1,5.9-.63,9-.94,6.28-.61,9.56-.9,6.63-.59,10.08-.87,7-.55,10.59-.82,7.3-.53,11.07-.78,7.62-.5,11.53-.73,7.9-.47,12-.69,8.17-.43,12.35-.64l12.73-.59,13.06-.53q6.62-.26,13.37-.49l13.64-.43q6.88-.2,13.89-.37t14.09-.32q7.1-.15,14.27-.26t14.41-.2q7.23-.09,14.51-.15t14.59-.09Q447.54,1090.31,454.85,1090.31Z" transform="translate(-156.9 -260.65)"/><rect class="cls-4" x="430.42" y="552.45" width="13.42" height="208.75"/><path class="cls-5" d="M428.83,822.53a32.62,32.62,0,0,1,2.66-11.13c2.43-5.34,14.6-10.68,16.39-6.49s-.72,9.93-2.67,14.39a54.79,54.79,0,0,0-2.37,14.44Z" transform="translate(-156.9 -260.65)"/><path class="cls-6" d="M371.87,797S402.24,877.5,413,873.71s14.3-53.13,14.3-53.13l17.8,6.46s1.39,88.73-33.7,88.07-72.6-67.42-72.6-67.42Z" transform="translate(-156.9 -260.65)"/><path class="cls-7" d="M371.87,797S402.24,877.5,413,873.71s14.3-53.13,14.3-53.13l17.8,6.46s1.39,88.73-33.7,88.07-72.6-67.42-72.6-67.42Z" transform="translate(-156.9 -260.65)"/><path class="cls-6" d="M244,1090.31s-2.67,8.3-9.6,8.94-8.68,8-2.49,9.88,22.1-6.76,22.1-6.76l-.45-10.8Z" transform="translate(-156.9 -260.65)"/><path class="cls-6" d="M338.41,1090.31s2.67,8.3,9.61,8.94,8.64,8,2.48,9.88-22.1-6.76-22.1-6.76l.45-10.8Z" transform="translate(-156.9 -260.65)"/><path class="cls-8" d="M269.37,930.72l-26.69,161.09H256l33.58-87.46A148,148,0,0,1,349.19,931l9.85-6.11Z" transform="translate(-156.9 -260.65)"/><path class="cls-8" d="M359,924.93l-13.85,166.88h-17.8s4.16-125.57-27.94-152.28Z" transform="translate(-156.9 -260.65)"/><path class="cls-5" d="M300.62,718.07a79.39,79.39,0,0,1,1.44,21,6.4,6.4,0,0,1-7.18,5.5,14.17,14.17,0,0,1-12.2-9.24l-5.07-10.67A11.41,11.41,0,0,1,281.16,712C287.67,706.25,299.42,710.41,300.62,718.07Z" transform="translate(-156.9 -260.65)"/><polygon class="cls-5" points="121.64 466.06 119.99 507.64 142.97 506.9 134.93 476.95 121.64 466.06"/><path class="cls-8" d="M297.55,719a50.16,50.16,0,0,1-11.74.51A10.69,10.69,0,0,1,287.19,731a8.65,8.65,0,0,1-9.95,4.64l-1.71-16.23a13,13,0,0,1,5.15-12.22,45.58,45.58,0,0,1,5.1-3.28c4.43-2.43,11.64-.13,15.45-3.76a3,3,0,0,1,5,1.41c1.33,4.83,1.36,12.7-5,16.17A11.28,11.28,0,0,1,297.55,719Z" transform="translate(-156.9 -260.65)"/><path class="cls-5" d="M288.5,730.45s-.69-4.85-4.3-4-2.66,7.8,2.38,8Z" transform="translate(-156.9 -260.65)"/><path class="cls-5" d="M301.82,726l4.11,4.43a2,2,0,0,1,.46,1.9,2.06,2.06,0,0,1-1.37,1.41l-4.7,1.49Z" transform="translate(-156.9 -260.65)"/><path class="cls-9" d="M293.87,744.09a15.28,15.28,0,0,1-8-3.52s1.23,7.5,10.41,14Z" transform="translate(-156.9 -260.65)"/><path class="cls-6" d="M359,926.48l-38.64,2.85-50.95,3.76c-1.09-1.57-44.65-64.39-43.76-112.38.48-25.33,13.34-46.49,51.29-52.41l15.61-.51a94.61,94.61,0,0,0,11.4-1c12.06-1.84,48.3-4,68,30.19C395.73,838.51,359,926.48,359,926.48Z" transform="translate(-156.9 -260.65)"/><path class="cls-10" d="M321.22,929.76l-51.83,3.33c-1.09-1.57-44.65-64.39-43.76-112.38,29.35-13.61,76.75-18.2,76.75-18.2s9.66,10-1.82,23.7c-14.14,16.92-19.13,40-10.67,60.42,5.34,13.13,13.34,34,30.5,42.7A7.27,7.27,0,0,0,321.22,929.76Z" transform="translate(-156.9 -260.65)"/><path class="cls-6" d="M298.3,785.94A35.85,35.85,0,0,0,257.54,774c-26.87,9.63-73.28,32.48-78.27,77.82-7.05,64.45,96.07,78.6,96.07,78.6L278.65,914s-106.75-59.67-3.31-89.7C275.24,824.31,316.58,810.65,298.3,785.94Z" transform="translate(-156.9 -260.65)"/><path class="cls-7" d="M298.3,785.94A35.85,35.85,0,0,0,257.54,774c-26.87,9.63-73.28,32.48-78.27,77.82-7.05,64.45,96.07,78.6,96.07,78.6L278.65,914s-106.75-59.67-3.31-89.7C275.24,824.31,316.58,810.65,298.3,785.94Z" transform="translate(-156.9 -260.65)"/><path class="cls-5" d="M278.71,916.39s17.64.34,14.54,11.37-18,2.67-18,2.67Z" transform="translate(-156.9 -260.65)"/><path class="cls-11" d="M447,820.52a18.52,18.52,0,0,1-5.34-6.48,5,5,0,0,1-1-3.39,6.75,6.75,0,0,1,2-3.28,3.46,3.46,0,0,1,2.81-1.07,9.19,9.19,0,0,1,3.68,1.31,13.68,13.68,0,0,1,5.79,6.06l-3.31,9a14.27,14.27,0,0,1-4.72-2.17Zm75.23.3L521,813.67a3.07,3.07,0,0,0-6.06.77l-24.42,2.38.77-7-32-7.08-1.74,4.75a18.41,18.41,0,0,0-5.1-4.32c-3.52-2-8-3.23-11.71-.77a10.67,10.67,0,0,0-4.83,11.29,21,21,0,0,0,2.83,5.49,21.26,21.26,0,0,0,3.87,4.54,19.81,19.81,0,0,0,7.52,4l-2.67,7.13,40,8.94,1-9.24,28-11.77a3.07,3.07,0,0,0,5.74-2Z" transform="translate(-156.9 -260.65)"/><path class="cls-4" d="M538.38,825.54a40.66,40.66,0,0,0-7.23-5.2,1.15,1.15,0,1,0-1,2.08,40.06,40.06,0,0,1,6.72,4.91,1.18,1.18,0,0,0,1.5-1.79Z" transform="translate(-156.9 -260.65)"/><path class="cls-4" d="M549.11,836.86a19.92,19.92,0,0,0-5.34-6.51,1.18,1.18,0,0,0-1.54.23,1.16,1.16,0,0,0,0,1.55,17.47,17.47,0,0,1,1.44,1.29l.32.29v.13l.64.75a15,15,0,0,1,1.09,1.52,7.11,7.11,0,0,1,.51.83v.53a1.16,1.16,0,1,0,2.16-.83Z" transform="translate(-156.9 -260.65)"/><path class="cls-4" d="M555.25,848.68a26.42,26.42,0,0,0-3.5-7.13,1.15,1.15,0,0,0-1.87,1.34c.35.53.7,1,1,1.57a3.87,3.87,0,0,1,.27.43v.56a.44.44,0,0,0,.21.43,24.76,24.76,0,0,1,1.39,3.52,1.17,1.17,0,0,0,1.49.67,1.21,1.21,0,0,0,1-1.39Z" transform="translate(-156.9 -260.65)"/><path class="cls-4" d="M540.43,818.34a31.91,31.91,0,0,0-8-2.67A1.17,1.17,0,0,0,532,818a28.25,28.25,0,0,1,7.39,2.38,1.18,1.18,0,1,0,1-2.11Z" transform="translate(-156.9 -260.65)"/><path class="cls-4" d="M557.41,830.85a33,33,0,0,0-6.94-6.24,1.17,1.17,0,0,0-1.63.16,1.13,1.13,0,0,0-.26.85,1.17,1.17,0,0,0,.42.78,31.21,31.21,0,0,1,6.51,5.79,1.17,1.17,0,0,0,1.63.26A1.14,1.14,0,0,0,557.41,830.85Z" transform="translate(-156.9 -260.65)"/><path class="cls-4" d="M567.2,846.49a16.81,16.81,0,0,0-4.43-7.76,1.15,1.15,0,0,0-1.21-.32,1.17,1.17,0,0,0-.28,2.1l.18.19.32.35.65.77c.4.56.77,1.15,1.12,1.74v.13l.24.48.4.93a13.83,13.83,0,0,1,.64,2,1.14,1.14,0,0,0,1.49.66A1.17,1.17,0,0,0,567.2,846.49Z" transform="translate(-156.9 -260.65)"/><path class="cls-4" d="M557.84,860.66a9.85,9.85,0,0,0-.94-3.81,1.16,1.16,0,0,0-2.13,0,1,1,0,0,0,0,.88,11.51,11.51,0,0,1,.58,1.68,9.39,9.39,0,0,1,.22,1.58,1,1,0,0,0,.4.74,1.06,1.06,0,0,0,.85.27,1.13,1.13,0,0,0,.79-.44A1.17,1.17,0,0,0,557.84,860.66Z" transform="translate(-156.9 -260.65)"/><path class="cls-4" d="M535.31,834.56a24.94,24.94,0,0,0-7.61-8.22,1.19,1.19,0,0,0-1.62.16,1.14,1.14,0,0,0-.26.85,1.13,1.13,0,0,0,.42.78,23.65,23.65,0,0,1,7.2,8,1.12,1.12,0,0,0,.75.47,1.08,1.08,0,0,0,.85-.21,1.15,1.15,0,0,0,.61-.85A1.18,1.18,0,0,0,535.31,834.56Z" transform="translate(-156.9 -260.65)"/><path class="cls-4" d="M543.61,849.11a22.68,22.68,0,0,0-3.2-7.66,1.16,1.16,0,0,0-1.9,1.33,7.11,7.11,0,0,1,.51.83l.24.37v.48l.21.4c0,.3.27.59.38.88s.45,1.15.64,1.74a8.34,8.34,0,0,1,.26.85.64.64,0,0,0,.14.48,1.22,1.22,0,0,1,0,.27,1.21,1.21,0,0,0,1.28,1,1.19,1.19,0,0,0,1-.18,1.2,1.2,0,0,0,.49-.83Z" transform="translate(-156.9 -260.65)"/><path class="cls-4" d="M544.49,865.73v-6a1.15,1.15,0,1,0-2.29.24v6a1.13,1.13,0,0,0,.42.78,1.16,1.16,0,0,0,.86.24,1.2,1.2,0,0,0,1-1.26Z" transform="translate(-156.9 -260.65)"/><polygon class="cls-12" points="356.98 734.84 517.29 734.84 505.28 848.74 369.01 848.74 356.98 734.84"/><path class="cls-13" d="M716.81,856.05a107.64,107.64,0,0,1-54.07,46.06c-37.36,14.12-63.33-2-63.33-2S608.3,871.07,645.8,857a107.55,107.55,0,0,1,71-.93Z" transform="translate(-156.9 -260.65)"/><path class="cls-13" d="M471.23,900.32a107.62,107.62,0,0,0,54,46.12c37.49,14.09,63.33-2,63.33-2s-8.86-29.09-46.36-43.18A107.58,107.58,0,0,0,471.23,900.32Z" transform="translate(-156.9 -260.65)"/><path class="cls-14" d="M471.23,900.32a107.62,107.62,0,0,0,54,46.12c37.49,14.09,63.33-2,63.33-2Z" transform="translate(-156.9 -260.65)"/><path class="cls-12" d="M596.48,796.45c2.6,0,5.19.11,7.74.31s5,.51,7.45.91,4.69.9,6.86,1.49a52.92,52.92,0,0,1,6,2,36.1,36.1,0,0,1,4.94,2.43,20.47,20.47,0,0,1,3.66,2.77,11.25,11.25,0,0,1,2.26,3,6.83,6.83,0,0,1,0,6.26,11.09,11.09,0,0,1-2.26,3,20,20,0,0,1-3.66,2.77,33.93,33.93,0,0,1-4.94,2.43,52.89,52.89,0,0,1-6,2c-2.17.58-4.46,1.08-6.86,1.48s-4.89.71-7.45.91-5.14.31-7.74.31-5.19-.1-7.74-.31-5-.51-7.45-.91-4.69-.9-6.86-1.48a52.23,52.23,0,0,1-6-2,33.44,33.44,0,0,1-4.94-2.43,20.1,20.1,0,0,1-3.67-2.77,11,11,0,0,1-2.25-3,6.75,6.75,0,0,1,0-6.26,11.2,11.2,0,0,1,2.25-3,20.56,20.56,0,0,1,3.67-2.77,35.54,35.54,0,0,1,4.94-2.43,52.26,52.26,0,0,1,6-2c2.17-.59,4.45-1.08,6.86-1.49s4.89-.7,7.45-.91S593.87,796.45,596.48,796.45Z" transform="translate(-156.9 -260.65)"/><path class="cls-11" d="M596.48,535.1c3.52,0,7,.17,10.54.52a104.66,104.66,0,0,1,10.44,1.55q5.19,1,10.24,2.56t9.94,3.56q4.88,2,9.54,4.51t9.05,5.42q4.39,2.94,8.48,6.29t7.82,7.09q3.74,3.74,7.09,7.82t6.28,8.48q2.94,4.4,5.43,9.05t4.51,9.54q2,4.89,3.56,9.94T702,621.67a104.66,104.66,0,0,1,1.55,10.44c.35,3.5.52,7,.52,10.54s-.17,7-.52,10.54A104.66,104.66,0,0,1,702,663.63q-1,5.19-2.56,10.24t-3.56,9.94q-2,4.88-4.51,9.54t-5.43,9q-2.92,4.4-6.28,8.48t-7.09,7.82q-3.74,3.74-7.82,7.09t-8.48,6.29q-4.4,2.92-9.05,5.42T637.64,742q-4.89,2-9.94,3.55t-10.24,2.57c-3.45.68-6.93,1.2-10.44,1.54s-7,.52-10.54.52-7-.17-10.54-.52-7-.86-10.44-1.54-6.87-1.55-10.24-2.57-6.69-2.21-9.94-3.55-6.43-2.86-9.54-4.52-6.12-3.47-9-5.42-5.76-4.06-8.48-6.29-5.33-4.6-7.82-7.09-4.86-5.1-7.09-7.82-4.33-5.55-6.29-8.48-3.76-5.94-5.42-9-3.17-6.29-4.52-9.54-2.53-6.57-3.55-9.94-1.88-6.78-2.57-10.24-1.2-6.93-1.55-10.44-.51-7-.51-10.54.17-7,.51-10.54.87-7,1.55-10.44,1.55-6.87,2.57-10.24,2.21-6.68,3.55-9.94,2.86-6.43,4.52-9.54,3.47-6.12,5.42-9.05,4.06-5.76,6.29-8.48,4.6-5.33,7.09-7.82,5.1-4.85,7.82-7.09,5.55-4.33,8.48-6.29,5.94-3.76,9-5.42,6.29-3.17,9.54-4.51,6.57-2.54,9.94-3.56,6.78-1.88,10.24-2.56a104.66,104.66,0,0,1,10.44-1.55C589.44,535.27,593,535.1,596.48,535.1Z" transform="translate(-156.9 -260.65)"/><rect class="cls-8" x="395.75" y="481.86" width="87.64" height="69.98"/><polygon class="cls-15" points="393.25 374.31 485.9 374.31 457.06 489.55 422.07 489.55 393.25 374.31"/><path class="cls-16" d="M716.81,856.05a107.64,107.64,0,0,1-54.07,46.06c-37.36,14.12-63.33-2-63.33-2Z" transform="translate(-156.9 -260.65)"/><path class="cls-17" d="M1203.19,301.91q5.73,0,11.43.56t11.31,1.68a114,114,0,0,1,11.1,2.78q5.49,1.67,10.78,3.85t10.34,4.9q5.05,2.7,9.81,5.88a117.4,117.4,0,0,1,17.67,14.5q4,4.05,7.69,8.48t6.81,9.19q3.18,4.75,5.89,9.81t4.89,10.35q2.19,5.28,3.85,10.77a116.74,116.74,0,0,1,4.46,22.42c.38,3.8.56,7.61.56,11.42s-.18,7.63-.56,11.43a116.74,116.74,0,0,1-4.46,22.42c-1.11,3.65-2.39,7.25-3.85,10.77a113.66,113.66,0,0,1-4.9,10.35c-1.8,3.36-3.76,6.64-5.88,9.81s-4.39,6.24-6.81,9.19-5,5.78-7.69,8.48a117.4,117.4,0,0,1-17.67,14.5q-4.76,3.18-9.81,5.88t-10.34,4.89a114.25,114.25,0,0,1-10.78,3.86q-5.47,1.67-11.1,2.78t-11.31,1.68q-5.7.56-11.43.56t-11.43-.56q-5.7-.57-11.32-1.68t-11.1-2.78q-5.47-1.67-10.77-3.86t-10.34-4.89q-5.06-2.7-9.82-5.88t-9.19-6.82q-4.42-3.63-8.48-7.68t-7.68-8.48q-3.63-4.43-6.82-9.19c-2.12-3.17-4.08-6.45-5.88-9.81s-3.43-6.82-4.89-10.35-2.75-7.12-3.86-10.77-2-7.35-2.78-11.1-1.3-7.52-1.68-11.32-.56-7.61-.56-11.43.19-7.62.56-11.42.94-7.58,1.68-11.32,1.67-7.45,2.78-11.1,2.4-7.25,3.86-10.77,3.09-7,4.89-10.35,3.76-6.64,5.88-9.81,4.4-6.24,6.82-9.19,5-5.78,7.68-8.48,5.53-5.26,8.48-7.68,6-4.7,9.19-6.82,6.45-4.08,9.82-5.88,6.81-3.43,10.34-4.9,7.12-2.74,10.77-3.85,7.36-2,11.1-2.78,7.52-1.3,11.32-1.68S1199.37,301.91,1203.19,301.91Z" transform="translate(-156.9 -260.65)"/><path class="cls-18" d="M838.4,453.58a37.22,37.22,0,0,1-34,1.35,37,37,0,0,1-15.69,3.46c-20.2,0-36.59-16.11-36.59-36,0-18.93,14.86-34.44,33.73-35.88a36.83,36.83,0,0,1,68.45,0c.78-.05,1.57-.08,2.37-.08,20.21,0,36.59,16.12,36.59,36s-16.38,36-36.59,36A36.94,36.94,0,0,1,838.4,453.58Z" transform="translate(-156.9 -260.65)"/><line class="cls-19" x1="972.11" y1="284.67" x2="923.91" y2="367.29"/><line class="cls-19" x1="903.26" y1="225.66" x2="858.63" y2="246.14"/><line class="cls-19" x1="903.26" y1="114.9" x2="809.62" y2="114.9"/><line class="cls-19" x1="929.15" y1="41.26" x2="893.98" y2="1.53"/></g></svg>