<svg id="Layer_1" data-name="Layer 1" xmlns="http://www.w3.org/2000/svg" xmlns:xlink="http://www.w3.org/1999/xlink" viewBox="0 0 1440 1440"><defs><style>.cls-1,.cls-4{fill:none;}.cls-2{clip-path:url(#clip-path);}.cls-3{fill:#02a018;}.cls-4{stroke:#fff;stroke-miterlimit:10;}.cls-5{fill:#2a5dff;}.cls-6{fill:#fff;}.cls-12,.cls-7,.cls-8{isolation:isolate;}.cls-8{font-size:104.12px;}.cls-12,.cls-8{font-family:DMSans-Regular, DM Sans;}.cls-9{letter-spacing:-0.02em;}.cls-10{letter-spacing:-0.01em;}.cls-11{letter-spacing:-0.02em;}.cls-12{font-size:75.2px;letter-spacing:-0.06em;}.cls-13{letter-spacing:0.03em;}.cls-14{letter-spacing:0.01em;}.cls-15{letter-spacing:0.03em;}</style><clipPath id="clip-path"><rect class="cls-1" x="287.18" y="591.37" width="304.21" height="181.15"/></clipPath></defs><g id="logo"><g class="cls-2"><g id="Group_20" data-name="Group 20"><path id="Path_589" data-name="Path 589" class="cls-3" d="M591.39,620.94l-.93.44C322,576.27,349.56,721.94,290.08,762.58l-2.53,1.18,1.5-.5c-.62.4-1.23.79-1.86,1.16l3.63-1.74c69.61-20,168.25,92.41,300.57-141.74"/><path id="Path_590" data-name="Path 590" class="cls-4" d="M590.47,621.4C496.18,622.11,289,763.26,289,763.26"/><path id="Path_591" data-name="Path 591" class="cls-4" d="M513.46,613.09c12.76,21.37,0,26.86,0,26.86s23.54-8.31,58.33,13.6"/><path id="Path_592" data-name="Path 592" class="cls-4" d="M537.94,700.05c-51.35-48.94-94-28.55-94-28.55"/><path id="Path_593" data-name="Path 593" class="cls-4" d="M461.14,761.53c-43.05-46.75-118.59-32.64-118.59-32.64"/><path id="Path_594" data-name="Path 594" class="cls-4" d="M339.6,730.72c19.42-37.1,8-53.4,8-53.4"/><path id="Path_595" data-name="Path 595" class="cls-5" d="M398.29,618.41,379.65,639,361,659.67l-18.64,20.59L321.7,703.13l-25.27-3.85L373,614.55Z"/><path id="Path_596" data-name="Path 596" class="cls-6" d="M322.07,704.18,294.5,700l78.15-86.43,27.57,4.2Zm-23.72-5.56,23,3.47,75.06-83-23-3.47Z"/><path id="Path_597" data-name="Path 597" class="cls-5" d="M369.52,684.41l-20.68,22.86-27.15-4.13,20.68-22.87Z"/><path id="Path_598" data-name="Path 598" class="cls-6" d="M349.23,708.3l-29.46-4.49L342,679.23l29.45,4.49Zm-25.6-5.85,24.84,3.78,19.12-21.15-24.84-3.79Z"/><path id="Path_599" data-name="Path 599" class="cls-5" d="M396.66,688.56,376,711.43l-27.15-4.14,20.68-22.87Z"/><path id="Path_600" data-name="Path 600" class="cls-6" d="M376.36,712.43,346.92,708l22.22-24.58,29.45,4.48Zm-25.59-5.85,24.84,3.79,19.12-21.16-24.84-3.78Z"/><path id="Path_601" data-name="Path 601" class="cls-5" d="M415.31,667.91l-18.67,20.63-27.15-4.14,18.65-20.62Z"/><path id="Path_602" data-name="Path 602" class="cls-6" d="M397,689.57l-29.45-4.49,20.19-22.33,29.45,4.48Zm-25.6-5.85,24.84,3.78,17.09-18.91-24.84-3.78Z"/><path id="Path_603" data-name="Path 603" class="cls-5" d="M472.62,604.52l-20.06,22.16-27.14-4.14,20-22.16Z"/><path id="Path_604" data-name="Path 604" class="cls-6" d="M453,627.73l-29.45-4.48,21.59-23.88,29.45,4.49Zm-25.59-5.85,24.83,3.79,18.47-20.5-24.85-3.78Z"/><path id="Path_605" data-name="Path 605" class="cls-5" d="M423.8,692.67l-20.67,22.86L376,711.4l20.67-22.87Z"/><path id="Path_606" data-name="Path 606" class="cls-6" d="M403.51,716.56l-29.45-4.48,22.23-24.58L425.73,692Zm-25.6-5.85,24.84,3.79,19.13-21.16L397,689.56Z"/><path id="Path_607" data-name="Path 607" class="cls-5" d="M492.18,656.16l-58,64.1-31.08-4.73,20.67-22.87L442.45,672l18.63-20.62Z"/><path id="Path_608" data-name="Path 608" class="cls-6" d="M434.6,721.28l-33.4-5.08,59.51-65.82,33.39,5.09Zm-29.54-6.44,28.78,4.38,56.4-62.38-28.78-4.38Z"/><path id="Path_609" data-name="Path 609" class="cls-5" d="M530.84,613.38l-38.68,42.81-31.08-4.73,18.64-20.62,20-22.16Z"/><path id="Path_610" data-name="Path 610" class="cls-6" d="M492.55,657.2l-33.39-5.09,40.23-44.49,33.39,5.08ZM463,650.75l28.78,4.39,37.13-41.07-28.78-4.39Z"/><path id="Path_611" data-name="Path 611" class="cls-5" d="M418.34,596.25l-20,22.16L373,614.55l20-22.16Z"/><path id="Path_612" data-name="Path 612" class="cls-6" d="M398.69,619.44l-27.57-4.2,21.57-23.87,27.57,4.2ZM375,613.88l22.95,3.47,18.47-20.42-22.95-3.47Z"/><path id="Path_613" data-name="Path 613" class="cls-5" d="M445.49,600.38l-20,22.16-27.17-4.14,20-22.16Z"/><path id="Path_614" data-name="Path 614" class="cls-6" d="M425.82,623.57l-29.45-4.49L418,595.23l29.45,4.48Zm-25.6-5.84,24.84,3.78,18.51-20.45-24.83-3.78Z"/><path id="Path_615" data-name="Path 615" class="cls-5" d="M406.8,643.16l-18.64,20.62L361,659.64,379.65,639Z"/><path id="Path_616" data-name="Path 616" class="cls-6" d="M388.53,664.81l-29.45-4.48L379.27,638l29.45,4.49ZM362.93,659l24.85,3.78,17.09-18.9L380,640.06Z"/><path id="Path_617" data-name="Path 617" class="cls-5" d="M499.77,608.65l-20,22.16-27.14-4.14,20-22.16Z"/><path id="Path_618" data-name="Path 618" class="cls-6" d="M480.09,631.84l-29.45-4.48,21.59-23.87L501.68,608ZM454.5,626l24.83,3.79,18.51-20.45L473,605.55Z"/><path id="Path_619" data-name="Path 619" class="cls-5" d="M479.73,630.81l-18.64,20.62-27.15-4.14,18.65-20.62Z"/><path id="Path_620" data-name="Path 620" class="cls-6" d="M461.45,652.46,432,648l20.19-22.33,29.45,4.48Zm-25.59-5.84,24.84,3.78,17.09-18.91L453,627.71Z"/><path id="Path_621" data-name="Path 621" class="cls-5" d="M461.08,651.43l-18.63,20.62-27.15-4.14,18.64-20.62Z"/><path id="Path_622" data-name="Path 622" class="cls-6" d="M442.83,673.08l-29.45-4.48,20.19-22.33L463,650.76Zm-25.6-5.85L442.07,671l17.09-18.91-24.84-3.78Z"/><path id="Path_623" data-name="Path 623" class="cls-5" d="M425.45,622.54,406.8,643.16,379.66,639l18.63-20.62Z"/><path id="Path_624" data-name="Path 624" class="cls-6" d="M407.18,644.19l-29.46-4.49,20.2-22.33,29.45,4.48Zm-25.6-5.85,24.84,3.79,17.09-18.91-24.82-3.78Z"/><path id="Path_625" data-name="Path 625" class="cls-5" d="M452.59,626.68l-18.66,20.61-27.15-4.13,18.65-20.62Z"/><path id="Path_626" data-name="Path 626" class="cls-6" d="M434.32,648.33l-29.45-4.48,20.19-22.34L454.51,626Zm-25.6-5.85,24.84,3.78,17.09-18.91-24.83-3.78Z"/><line id="Line_1" data-name="Line 1" class="cls-1" x1="510.33" y1="635.47" x2="479.73" y2="630.81"/><path id="Path_634" data-name="Path 634" class="cls-6" d="M479.58,631.76l.3-1.92,30.6,4.68-.29,1.92Z"/><path id="Path_627" data-name="Path 627" class="cls-5" d="M433.94,647.29l-18.63,20.6-27.15-4.14,18.64-20.62Z"/><path id="Path_628" data-name="Path 628" class="cls-6" d="M415.68,669l-29.45-4.48,20.19-22.33,29.45,4.48Zm-25.59-5.85,24.83,3.79L432,648l-24.84-3.78Z"/><line id="Line_2" data-name="Line 2" class="cls-1" x1="492.25" y1="656.18" x2="492.18" y2="656.17"/><path id="Path_629" data-name="Path 629" class="cls-6" d="M492.09,657.13H492l.31-1.91Z"/><line id="Line_3" data-name="Line 3" class="cls-1" x1="379.64" y1="639.03" x2="354.74" y2="635.23"/><path id="Path_635" data-name="Path 635" class="cls-6" d="M354.59,636.19l.29-1.92,24.91,3.81-.3,1.92Z"/><line id="Line_4" data-name="Line 4" class="cls-1" x1="473.51" y1="676.78" x2="442.45" y2="672.05"/><path id="Path_636" data-name="Path 636" class="cls-6" d="M442.3,673l.29-1.93,31.06,4.74-.29,1.93Z"/><path id="Path_630" data-name="Path 630" class="cls-5" d="M388.16,663.78,369.52,684.4l-27.15-4.14L361,659.64Z"/><path id="Path_631" data-name="Path 631" class="cls-6" d="M369.89,685.43l-29.45-4.49,20.19-22.33,29.46,4.49Zm-25.6-5.85,24.84,3.79,17.1-18.91-24.84-3.78Z"/><path id="Path_632" data-name="Path 632" class="cls-5" d="M442.45,672.05,423.8,692.67l-27.14-4.14,18.64-20.62Z"/><path id="Path_633" data-name="Path 633" class="cls-6" d="M424.16,693.7l-29.45-4.48,20.2-22.33,29.45,4.48Zm-25.58-5.85,24.84,3.78,17.09-18.91-24.83-3.78Z"/><line id="Line_5" data-name="Line 5" class="cls-1" x1="454.77" y1="697.38" x2="423.8" y2="692.67"/><path id="Path_637" data-name="Path 637" class="cls-6" d="M423.65,693.62l.3-1.93,31,4.74-.3,1.93Z"/><line id="Line_6" data-name="Line 6" class="cls-1" x1="371.54" y1="661.25" x2="335.88" y2="655.82"/><path id="Path_638" data-name="Path 638" class="cls-6" d="M335.73,656.77l.3-1.93,35.66,5.46-.3,1.92Z"/><line id="Line_7" data-name="Line 7" class="cls-1" x1="343.94" y1="680.5" x2="316.95" y2="676.4"/><path id="Path_639" data-name="Path 639" class="cls-6" d="M316.8,677.34l.3-1.92,27,4.13-.3,1.92Z"/></g></g></g><g id="Evegreen" class="cls-7"><text class="cls-8" transform="translate(617.16 664.32)">E<tspan class="cls-9" x="58.72" y="0">v</tspan><tspan x="110.37" y="0">e</tspan><tspan class="cls-10" x="169.61" y="0">r</tspan><tspan x="206.16" y="0">g</tspan><tspan class="cls-11" x="263.63" y="0">r</tspan><tspan x="299.45" y="0">een</tspan></text></g><g id="Technologies" class="cls-7"><text class="cls-12" transform="translate(617.16 760.95)">T<tspan class="cls-13" x="37.6" y="0">echnol</tspan><tspan class="cls-14" x="284.02" y="0">o</tspan><tspan class="cls-15" x="329.21" y="0">gies</tspan></text></g></svg>